<svg id="Layer_1" data-name="Layer 1" xmlns="http://www.w3.org/2000/svg" viewBox="0 0 80 80"><defs><style>.cls-1,.cls-3{fill:none;}.cls-2{fill:#9dc42e;}.cls-3{stroke:#532e15;stroke-miterlimit:10;stroke-width:3px;}.cls-4{fill:#795132;}.cls-5{fill:#285a28;}</style></defs><path class="cls-1" d="M27.45,33.86c.93-1.09,1.82-2.15,2.66-3.16-3-4.69-4.81-7.38-9-6.26-5.59,1.5-5,5.88-6.16,16.36a9.56,9.56,0,0,0,7.77,10.76C21.43,46,22.53,39.6,27.45,33.86Z"/><path class="cls-1" d="M53.78,18.89c-7.89-2.28-10.84,2.88-19,13.88L33,35.19l-.22.29A14.85,14.85,0,0,0,30.4,49.93a14.62,14.62,0,0,0,2.71,4.51A14.92,14.92,0,0,0,40.65,59c11.82,3,20.8-4.59,20.14-18.36C60.19,28.15,61.58,21.13,53.78,18.89Z"/><path class="cls-2" d="M65.13,41.31c-1.22-15.26,1.66-23.58-8.41-26.89C45.65,10.78,41.93,16.3,32,28.48,28.5,23,26.63,19.73,21.29,21c-8.44,1.93-7.56,7.28-9.81,20.74C9.83,51.52,17.74,57.5,25,57.17A20.34,20.34,0,0,0,36.5,66.39C52.66,71.2,66.88,63.1,65.13,41.31ZM15,40.8c1.12-10.48.57-14.86,6.16-16.36,4.15-1.12,6,1.57,9,6.26-.84,1-1.73,2.07-2.66,3.16-4.92,5.74-6,12.09-4.69,17.7A9.56,9.56,0,0,1,15,40.8ZM40.65,59a14.92,14.92,0,0,1-7.54-4.58,14.62,14.62,0,0,1-2.71-4.51,14.85,14.85,0,0,1,2.36-14.45l.22-.29,1.81-2.42c8.15-11,11.1-16.16,19-13.88s6.41,9.26,7,21.77C61.45,54.43,52.47,62,40.65,59Z"/><ellipse class="cls-3" cx="44.27" cy="45.6" rx="7.63" ry="7.01" transform="translate(-17.41 60.93) rotate(-59.81)"/><ellipse class="cls-4" cx="43.52" cy="44.8" rx="7.63" ry="6.8" transform="translate(-16.47 62.19) rotate(-62)"/><path class="cls-5" d="M57.44,11.11s-.31-.85,2.13.32,9.76,4.49,6.71,12.32c-.57,1.47-6.44-1-7.94-4.59A17.92,17.92,0,0,1,57.44,11.11Z"/></svg>